# xmcd
#
# Track frame offsets:
#	150
#	9025
#	17337
#	25782
#	36395
#	45257
#	55172
#	66850
#	80502
#	90832
#	101895
#	113807
#	124175
#	131717
#	142105
#	155790
#	167300
#	179042
#	189690
#	199217
#	209410
#	219322
#	228027
#	236577
#	247535
#
# Disc length: 3445
#
# Revision: 2
# Processed by: cddbd v1.5.1PL0 Copyright (c) Steve Scherf et al.
# Submitted via: audiograbber 1.82.00
# Normalized: r1:DSETVAR1,TDELIM( - )
#
DISCID=490d7319
DTITLE=Various Artist - Essential Sun Rockabillity, Vol. 2
DYEAR=1900
DGENRE=
TTITLE0=Luck McDaniel - Go Ahead Baby
TTITLE1=Jimmy Haggett - Rock-Me - Baby
TTITLE2=Carl Perkins - Honky Tonk Babe
TTITLE3=Slim Rhodes - Gonna Romp and Stomp
TTITLE4=Onie Wheeler - Tell'em Off
TTITLE5=Hayden Thompson - Love My Baby
TTITLE6=Johnny Carroll - That's The Way I Love
TTITLE7=Ray Harris - Love Dumb Baby
TTITLE8=Jimmy Wages - Heart Breakin' Love
TTITLE9=Tommy Blake - Shake Around
TTITLE10=Gene Simmons - Chains Of Love
TTITLE11=Jack Earls - Slow Down
TTITLE12=Narvel Felts - Foolish Thoughts
TTITLE13=Jimmy Pritchett - That's The Way I Feel
TTITLE14=Kenny Parchman - Treat Me Right
TTITLE15=Curtis Hoback - Walkin' With My Best Friends
TTITLE16=Mack Vickery - Foolproof
TTITLE17=Dean Beard - Rock Around The Town
TTITLE18=Vernon Taylor - This Kind Of Love
TTITLE19=Rudy Grayzell - Judy
TTITLE20=Johnny Valentine - Andy Anderson
TTITLE21=Dear John - Warren Smith
TTITLE22=Taracy Pendarvis - Huh Huh Oh Yeah
TTITLE23=Roy Hall - Christine
TTITLE24=Macy Skipper - Bop Pills
EXTD=
EXTT0=
EXTT1=
EXTT2=
EXTT3=
EXTT4=
EXTT5=
EXTT6=
EXTT7=
EXTT8=
EXTT9=
EXTT10=
EXTT11=
EXTT12=
EXTT13=
EXTT14=
EXTT15=
EXTT16=
EXTT17=
EXTT18=
EXTT19=
EXTT20=
EXTT21=
EXTT22=
EXTT23=
EXTT24=
PLAYORDER=
